<svg xmlns="http://www.w3.org/2000/svg" width="639" height="562" viewBox="0 0 639 562" fill="none"><rect x="239" y="126" width="250" height="15" rx="7.5" fill="#F1F1F1"></rect><rect x="219" y="237" width="286" height="15" rx="7.5" fill="#F1F1F1"></rect><rect x="489" y="438" width="201" height="15" rx="7.5" transform="rotate(-90 489 438)" fill="#F1F1F1"></rect><rect x="254" y="126" width="126" height="15" rx="7.5" transform="rotate(90 254 126)" fill="#F1F1F1"></rect><rect x="154" y="278" width="134" height="15" rx="7.5" transform="rotate(90 154 278)" fill="#F1F1F1"></rect><rect x="259" y="415" width="120" height="15" rx="7.5" transform="rotate(-180 259 415)" fill="#F1F1F1"></rect><g filter="url(#filter0_b_2040_6238)"><rect x="441.953" y="359.531" width="140.469" height="140.469" fill="white"></rect><rect x="442.345" y="359.923" width="139.685" height="139.685" stroke="#DADEE3" stroke-width="0.784238"></rect></g><path d="M559.945 393.777C559.945 392.707 560.813 391.839 561.884 391.839H572.053C573.124 391.839 573.992 392.707 573.992 393.777V467.692H559.945V393.777Z" fill="url(#paint0_linear_2040_6238)"></path><path d="M494.629 409.229C494.629 408.158 495.497 407.29 496.568 407.29H506.737C507.808 407.29 508.676 408.158 508.676 409.229V467.692H494.629V409.229Z" fill="#F4F3EF"></path><path d="M516.398 414.146C516.398 413.075 517.266 412.207 518.337 412.207H528.507C529.577 412.207 530.445 413.075 530.445 414.146V467.692H516.398V414.146Z" fill="#8F9195"></path><path d="M538.172 421.169C538.172 420.098 539.04 419.23 540.111 419.23H550.28C551.351 419.23 552.219 420.098 552.219 421.169V467.692H538.172V421.169Z" fill="#F4F3EF"></path><path d="M472.855 423.276C472.855 422.205 473.724 421.337 474.794 421.337H484.964C486.034 421.337 486.902 422.205 486.902 423.276V467.692H472.855V423.276Z" fill="#F4F3EF"></path><path d="M451.082 438.728C451.082 437.657 451.95 436.789 453.021 436.789H463.19C464.261 436.789 465.129 437.657 465.129 438.728V467.692H451.082V438.728Z" fill="#F4F3EF"></path><g filter="url(#filter1_b_2040_6238)"><rect x="436" y="39" width="160" height="160" fill="white"></rect><rect x="436.5" y="39.5" width="159" height="159" stroke="#DADEE3"></rect></g><path d="M530.89 66.5765C542.469 69.7763 552.674 76.6984 559.929 86.2744C567.184 95.8503 571.085 107.548 571.031 119.561L516.316 119.315L530.89 66.5765Z" fill="#8F9195"></path><path d="M530.89 66.5765C542.469 69.7763 552.674 76.6984 559.929 86.2744C567.184 95.8503 571.085 107.548 571.031 119.561L516.316 119.315L530.89 66.5765Z" fill="url(#paint1_linear_2040_6238)"></path><path d="M464.885 137.983C461.455 128.534 460.695 118.324 462.687 108.471C464.679 98.619 469.347 89.5059 476.177 82.1319C483.008 74.758 491.738 69.4083 501.41 66.6698C511.081 63.9313 521.32 63.9099 531.003 66.6079L516.316 119.315L464.885 137.983Z" fill="#F5D457"></path><path d="M464.885 137.983C461.455 128.534 460.695 118.324 462.687 108.471C464.679 98.619 469.347 89.5059 476.177 82.1319C483.008 74.758 491.738 69.4083 501.41 66.6698C511.081 63.9313 521.32 63.9099 531.003 66.6079L516.316 119.315L464.885 137.983Z" fill="url(#paint2_linear_2040_6238)"></path><path d="M537.739 169.662C530.845 172.595 523.422 174.081 515.93 174.028C508.438 173.976 501.037 172.385 494.185 169.354C487.334 166.324 481.177 161.919 476.098 156.412C471.018 150.905 467.124 144.413 464.656 137.339L516.316 119.315L537.739 169.662Z" fill="white"></path><path d="M571.031 119.315C571.031 130.04 567.88 140.528 561.968 149.476C556.056 158.424 547.644 165.438 537.779 169.645L516.316 119.315H571.031Z" fill="#F4F3EF"></path><g filter="url(#filter2_b_2040_6238)"><rect x="234" y="337" width="119.444" height="119.444" fill="white"></rect><rect x="234.392" y="337.392" width="118.661" height="118.661" stroke="#DADEE3" stroke-width="0.783784"></rect></g><path d="M267.965 386.235C268.236 386.499 268.533 386.736 268.852 386.941L258.753 399.589C258.483 399.325 258.186 399.087 257.867 398.881L267.965 386.235Z" fill="#F4F3EF"></path><path d="M274.456 387.229L286.028 417.061C285.659 417.162 285.305 417.301 284.97 417.471L273.398 387.639C273.767 387.538 274.122 387.399 274.456 387.229Z" fill="#F4F3EF"></path><path d="M298.953 396.764C299.276 396.959 299.621 397.12 299.981 397.246L290.415 417.658C290.092 417.464 289.747 417.302 289.387 417.176L298.953 396.764Z" fill="#F4F3EF"></path><path d="M305.589 396.135L313.01 406.366C312.683 406.557 312.375 406.781 312.093 407.032L304.672 396.801C305.001 396.611 305.309 396.387 305.589 396.135Z" fill="#F4F3EF"></path><path d="M328.147 376.443L318.161 406.106C317.819 405.95 317.46 405.829 317.086 405.745L327.071 376.083C327.412 376.238 327.773 376.36 328.147 376.443Z" fill="#F4F3EF"></path><path d="M254.814 407.706C257.076 407.706 258.91 405.873 258.91 403.611C258.91 401.349 257.076 399.516 254.814 399.516C252.552 399.516 250.719 401.349 250.719 403.611C250.719 405.873 252.552 407.706 254.814 407.706Z" fill="#E3E1DA"></path><path d="M301.841 396.03C304.103 396.03 305.937 394.197 305.937 391.935C305.937 389.673 304.103 387.84 301.841 387.84C299.58 387.84 297.746 389.673 297.746 391.935C297.746 394.197 299.58 396.03 301.841 396.03Z" fill="black"></path><path d="M315.838 415.328C318.099 415.328 319.933 413.494 319.933 411.232C319.933 408.971 318.099 407.137 315.838 407.137C313.576 407.137 311.742 408.971 311.742 411.232C311.742 413.494 313.576 415.328 315.838 415.328Z" fill="#E3E1DA"></path><path d="M329.396 375.052C331.658 375.052 333.492 373.218 333.492 370.956C333.492 368.695 331.658 366.861 329.396 366.861C327.134 366.861 325.301 368.695 325.301 370.956C325.301 373.218 327.134 375.052 329.396 375.052Z" fill="url(#paint3_linear_2040_6238)"></path><path d="M287.521 426.583C289.783 426.583 291.617 424.75 291.617 422.488C291.617 420.226 289.783 418.392 287.521 418.392C285.259 418.392 283.426 420.226 283.426 422.488C283.426 424.75 285.259 426.583 287.521 426.583Z" fill="black"></path><path d="M271.9 386.307C274.162 386.307 275.995 384.474 275.995 382.212C275.995 379.95 274.162 378.117 271.9 378.117C269.638 378.117 267.805 379.95 267.805 382.212C267.805 384.474 269.638 386.307 271.9 386.307Z" fill="url(#paint4_linear_2040_6238)"></path><g filter="url(#filter3_b_2040_6238)"><rect x="45" y="206" width="178" height="88" fill="white"></rect><rect x="45.5" y="206.5" width="177" height="87" stroke="#1E2630"></rect><path d="M112.148 253.124V259.134H110.273V243.234H114.66C116.355 243.234 117.691 243.652 118.628 244.468C119.565 245.303 120.023 246.458 120.023 247.97C120.023 249.483 119.505 250.716 118.468 251.672C117.431 252.627 116.016 253.104 114.261 253.104H112.148V253.124ZM112.148 244.925V251.453H114.102C115.398 251.453 116.375 251.154 117.053 250.577C117.73 250 118.069 249.164 118.069 248.09C118.069 246 116.833 244.945 114.341 244.945H112.148V244.925ZM126.683 259.413C125.008 259.413 123.652 258.876 122.655 257.821C121.658 256.766 121.16 255.353 121.16 253.602C121.16 251.692 121.678 250.199 122.735 249.124C123.772 248.05 125.188 247.512 126.962 247.512C128.657 247.512 129.973 248.03 130.93 249.085C131.887 250.119 132.365 251.572 132.365 253.423C132.365 255.234 131.847 256.687 130.83 257.781C129.813 258.876 128.418 259.413 126.683 259.413ZM126.823 249.045C125.646 249.045 124.729 249.443 124.051 250.239C123.373 251.035 123.034 252.129 123.034 253.522C123.034 254.876 123.373 255.93 124.071 256.706C124.769 257.483 125.686 257.881 126.842 257.881C128.019 257.881 128.916 257.502 129.554 256.746C130.192 255.99 130.511 254.896 130.511 253.502C130.511 252.09 130.192 250.995 129.554 250.219C128.916 249.443 127.999 249.045 126.823 249.045ZM149.592 247.791L146.183 259.154H144.289L141.936 251.035C141.856 250.716 141.796 250.378 141.757 249.98H141.717C141.697 250.239 141.617 250.597 141.477 251.015L138.925 259.174H137.111L133.661 247.811H135.576L137.928 256.348C138.008 256.607 138.048 256.945 138.088 257.363H138.168C138.188 257.045 138.247 256.687 138.367 256.328L140.979 247.811H142.654L145.007 256.368C145.086 256.647 145.146 256.985 145.166 257.383H145.246C145.266 257.104 145.326 256.746 145.425 256.368L147.738 247.811H149.592V247.791ZM160.858 253.92H152.823C152.842 255.194 153.201 256.169 153.839 256.846C154.477 257.522 155.395 257.881 156.531 257.881C157.807 257.881 158.984 257.463 160.06 256.607V258.318C159.063 259.035 157.747 259.413 156.092 259.413C154.477 259.413 153.221 258.896 152.304 257.861C151.387 256.826 150.928 255.373 150.928 253.502C150.928 251.731 151.427 250.299 152.424 249.184C153.421 248.07 154.677 247.512 156.152 247.512C157.648 247.512 158.784 247.99 159.602 248.945C160.419 249.9 160.818 251.234 160.818 252.945V253.92H160.858ZM158.984 252.368C158.984 251.313 158.724 250.498 158.226 249.92C157.727 249.343 157.03 249.045 156.152 249.045C155.295 249.045 154.557 249.343 153.959 249.96C153.361 250.577 152.982 251.373 152.842 252.368H158.984ZM169.531 249.622C169.212 249.383 168.753 249.264 168.155 249.264C167.378 249.264 166.72 249.622 166.201 250.358C165.683 251.095 165.424 252.09 165.424 253.343V259.134H163.609V247.771H165.424V250.119H165.464C165.723 249.323 166.122 248.706 166.66 248.249C167.198 247.811 167.796 247.572 168.454 247.572C168.933 247.572 169.292 247.632 169.551 247.731V249.622H169.531ZM178.005 259.134V243.234H182.531C183.907 243.234 185.003 243.572 185.801 244.249C186.599 244.925 187.017 245.801 187.017 246.876C187.017 247.771 186.778 248.567 186.28 249.224C185.781 249.881 185.123 250.358 184.266 250.637V250.677C185.342 250.796 186.2 251.214 186.838 251.891C187.476 252.567 187.795 253.463 187.795 254.557C187.795 255.91 187.296 257.025 186.319 257.861C185.342 258.697 184.106 259.134 182.611 259.134H178.005ZM179.859 244.925V250.06H181.773C182.79 250.06 183.608 249.821 184.186 249.323C184.764 248.826 185.063 248.129 185.063 247.254C185.063 245.701 184.046 244.945 182.013 244.945H179.859V244.925ZM179.859 251.731V257.463H182.392C183.488 257.463 184.346 257.204 184.944 256.687C185.542 256.169 185.841 255.453 185.841 254.557C185.841 252.687 184.565 251.731 181.993 251.731H179.859ZM192.899 259.134H191.025V243.234H192.899V259.134Z" fill="black"></path><path d="M97.5715 235.274V264.905C97.5715 265.642 96.9733 266.259 96.2157 266.259H87.7816C87.0439 266.259 86.4258 265.662 86.4258 264.905V235.274C86.4258 234.537 87.0239 233.92 87.7816 233.92H96.2157C96.9534 233.94 97.5715 234.537 97.5715 235.274Z" fill="url(#paint5_linear_2040_6238)"></path><path d="M90.9934 243.373V266.279H79.8477V243.373C79.8477 242.637 80.4458 242.02 81.2035 242.02H89.6375C90.3753 242.02 90.9934 242.617 90.9934 243.373Z" fill="url(#paint6_linear_2040_6238)"></path><path d="M73.2656 251.453V264.925C73.2656 265.662 73.8638 266.279 74.6215 266.279H84.4113V251.453C84.4113 250.716 83.8132 250.1 83.0555 250.1H74.6215C73.8837 250.1 73.2656 250.697 73.2656 251.453Z" fill="url(#paint7_linear_2040_6238)"></path></g><path d="M322.214 85.4286C323.989 85.4286 325.429 83.9895 325.429 82.2143C325.429 80.4391 323.989 79 322.214 79C320.439 79 319 80.4391 319 82.2143C319 83.9895 320.439 85.4286 322.214 85.4286Z" fill="#FCD410"></path><path d="M181.214 348.429C182.989 348.429 184.429 346.989 184.429 345.214C184.429 343.439 182.989 342 181.214 342C179.439 342 178 343.439 178 345.214C178 346.989 179.439 348.429 181.214 348.429Z" fill="#FCD410"></path><path d="M366.821 294L371.643 302.036H362L366.821 294Z" fill="#FCD410"></path><path d="M118.821 157L123.643 165.036H114L118.821 157Z" fill="#FCD410"></path><path d="M398.821 485L403.643 493.036H394L398.821 485Z" fill="#FCD410"></path><path d="M612.203 284L605 291.203L612.203 298.406L619.406 291.203L612.203 284Z" stroke="#FCD410" stroke-width="3" stroke-miterlimit="10"></path><path d="M192.203 65L185 72.203L192.203 79.406L199.406 72.203L192.203 65Z" stroke="#FCD410" stroke-width="3" stroke-miterlimit="10"></path><path d="M353.203 160L346 167.203L353.203 174.406L360.406 167.203L353.203 160Z" stroke="#FCD410" stroke-width="3" stroke-miterlimit="10"></path><defs><filter id="filter0_b_2040_6238" x="402.741" y="320.319" width="218.893" height="218.893" filterUnits="userSpaceOnUse" color-interpolation-filters="sRGB"><feGaussianBlur stdDeviation="19.606"></feGaussianBlur></filter><filter id="filter1_b_2040_6238" x="386" y="-11" width="260" height="260" filterUnits="userSpaceOnUse" color-interpolation-filters="sRGB"><feGaussianBlur stdDeviation="25"></feGaussianBlur></filter><filter id="filter2_b_2040_6238" x="194.811" y="297.811" width="197.824" height="197.823" filterUnits="userSpaceOnUse" color-interpolation-filters="sRGB"><feGaussianBlur stdDeviation="19.5946"></feGaussianBlur></filter><filter id="filter3_b_2040_6238" x="5.81079" y="166.811" width="256.378" height="166.378" filterUnits="userSpaceOnUse" color-interpolation-filters="sRGB"><feGaussianBlur stdDeviation="19.5946"></feGaussianBlur></filter><linearGradient id="paint0_linear_2040_6238" x1="559.182" y1="392.779" x2="604.033" y2="429.003" gradientUnits="userSpaceOnUse"><stop stop-color="#F6D751"></stop><stop offset="1" stop-color="#E6AD10"></stop></linearGradient><linearGradient id="paint1_linear_2040_6238" x1="443.555" y1="64.6235" x2="462.695" y2="186.247" gradientUnits="userSpaceOnUse"><stop stop-color="#E6AD10"></stop><stop offset="1" stop-color="#C87E0E"></stop></linearGradient><linearGradient id="paint2_linear_2040_6238" x1="480.61" y1="59.2642" x2="513.126" y2="174.846" gradientUnits="userSpaceOnUse"><stop stop-color="#F9E589"></stop><stop offset="1" stop-color="#F6D751"></stop></linearGradient><linearGradient id="paint3_linear_2040_6238" x1="326.724" y1="366.462" x2="329.157" y2="375.113" gradientUnits="userSpaceOnUse"><stop stop-color="#F9E589"></stop><stop offset="1" stop-color="#F6D751"></stop></linearGradient><linearGradient id="paint4_linear_2040_6238" x1="269.227" y1="377.717" x2="271.661" y2="386.368" gradientUnits="userSpaceOnUse"><stop stop-color="#F9E589"></stop><stop offset="1" stop-color="#F6D751"></stop></linearGradient><linearGradient id="paint5_linear_2040_6238" x1="84.5877" y1="233.927" x2="98.5038" y2="264.405" gradientUnits="userSpaceOnUse"><stop stop-color="#E6AD10"></stop><stop offset="1" stop-color="#C87E0E"></stop></linearGradient><linearGradient id="paint6_linear_2040_6238" x1="79.2422" y1="242.321" x2="90.9666" y2="265.814" gradientUnits="userSpaceOnUse"><stop stop-color="#F6D751"></stop><stop offset="1" stop-color="#E6AD10"></stop></linearGradient><linearGradient id="paint7_linear_2040_6238" x1="75.2016" y1="249.311" x2="81.6561" y2="265.116" gradientUnits="userSpaceOnUse"><stop stop-color="#F9E589"></stop><stop offset="1" stop-color="#F6D751"></stop></linearGradient></defs></svg>